<svg width="375" height="260" viewBox="0 0 375 260" fill="none" xmlns="http://www.w3.org/2000/svg">
<g opacity="0.7" clip-path="url(#clip0_8_799)">
<path d="M186.093 174.531V179.219C186.093 181.797 183.984 183.906 181.406 183.906H134.531C131.953 183.906 129.844 181.797 129.844 179.219V104.219C129.844 101.641 131.953 99.5315 134.531 99.5315H159.375M144.609 130H157.031M144.609 139.375H157.031M144.609 148.75H157.031M144.609 158.125H157.031M144.609 167.5H157.031M188.906 85.4686V80.7811C188.906 78.2028 191.016 76.0936 193.594 76.0936H240.469C243.047 76.0936 245.156 78.2028 245.156 80.7811V155.781C245.156 158.359 243.047 160.468 240.469 160.468H217.968M217.968 106.563H230.39M217.968 115.937H230.39M217.968 125.312H230.39M217.968 134.687H230.39M217.968 144.062H230.39M179.607 146.193C180.643 145.156 181.874 144.334 183.228 143.773C184.582 143.212 186.034 142.923 187.5 142.923C188.966 142.923 190.417 143.212 191.771 143.773C193.126 144.334 194.356 145.156 195.393 146.193M179.297 125.526L172.265 132.557M172.265 125.526L179.297 132.557M202.734 125.526L195.703 132.557M195.703 125.526L202.734 132.557M164.062 87.8126H210.937C213.515 87.8126 215.625 89.9217 215.625 92.4998V167.5C215.625 170.078 213.515 172.187 210.937 172.187H164.062C161.484 172.187 159.375 170.078 159.375 167.5V92.4998C159.375 89.9217 161.484 87.8126 164.062 87.8126Z" stroke="white" stroke-width="4" stroke-miterlimit="2.613" stroke-linecap="round" stroke-linejoin="round"/>
</g>
<defs>
<clipPath id="clip0_8_799">
<rect width="120" height="120" fill="white" transform="translate(127.5 70)"/>
</clipPath>
</defs>
</svg>
